<?xml version="1.0" encoding="utf-8"?>
<!-- Generator: Adobe Illustrator 19.2.1, SVG Export Plug-In . SVG Version: 6.00 Build 0)  -->
<svg version="1.1" id="layer" xmlns="http://www.w3.org/2000/svg" xmlns:xlink="http://www.w3.org/1999/xlink" x="0px" y="0px"
	 viewBox="0 0 652 652" style="enable-background:new 0 0 652 652;" xml:space="preserve">
<style type="text/css">
	.st0{fill:#FFFFFF;}
</style>
<g>
	<path d="M540,132.5C472.2,92.9,396.4,72,320.7,72s-151.4,20.9-219.3,60.5l-8.7,5.1v367.8l8.7,5.1c42.4,24.7,81.2,40.6,122.3,49.9
		l19.6,4.3l11.6,1.8c23.1,3.7,45.2,5.5,65.7,5.5c20.6,0,42.5-1.8,64.8-5.3l11.8-1.9l19.9-4.4c41.2-9.3,80.2-25.2,122.7-50l8.7-5.1
		V137.6L540,132.5z"/>
	<path class="st0" d="M416.6,246.7v-27.8l-3-0.2c-5-0.3-10.8,0.9-16.4,2.1c-5,1.1-10.1,2.2-14.3,2l-3.3-0.1v22
		c4,0.2,8.1,0.3,12.1,0.5v-11l2-0.4c2-0.4,4.1-0.8,6-1.2l4.7-1V246C408.6,246.2,412.6,246.5,416.6,246.7"/>
	<path class="st0" d="M261,244.8v-22l-3.4,0.1c-4,0.2-9.1-0.9-14-2c-5.5-1.2-11.2-2.4-16.1-2.1l-3,0.2v27.7c4-0.3,8.1-0.5,12.1-0.7
		v-14.2l4.8,1.1c1.8,0.4,3.7,0.8,5.5,1.2l2,0.4v10.9C252.9,245.1,257,244.9,261,244.8"/>
	<path class="st0" d="M113.6,257.9V149.6c64.2-37.1,135.8-56.7,207.1-56.7c71.3,0,142.9,19.6,207.1,56.7V258
		c4.1,0.6,8.1,1.1,12.1,1.7V142.6l-4.4-2.6c-66.5-38.8-140.8-59.3-214.8-59.3c-74.1,0-148.4,20.5-214.9,59.3l-4.4,2.6v117
		C105.5,259,109.6,258.5,113.6,257.9"/>
	<path class="st0" d="M527.9,449.5v43.9c-38.6,22.4-74.1,37-111.2,45.8v-78.4c-4,0.3-8.1,0.5-12.1,0.7v92.8l10.9-2.4
		c40.3-9.1,78.5-24.7,120.2-49l4.4-2.6v-52.6C535.9,448.3,531.9,448.9,527.9,449.5"/>
	<path class="st0" d="M379.6,462.7v82.9c-39.2,5.9-79.4,5.8-118.6-0.1v-82.8c-4-0.2-8.1-0.3-12.1-0.5v93.7l7.5,1.2
		c21.3,3.4,43,6.1,64.4,6.1c21.1,0,42.5-2.7,63.5-6l7.5-1.2v-93.9C387.7,462.4,383.7,462.6,379.6,462.7"/>
	<path class="st0" d="M224.5,460.9v78.2c-37-8.9-72.4-23.5-110.9-45.8v-43.7c-4-0.6-8.1-1.1-12.1-1.7v52.4l4.4,2.6
		c41.6,24.3,79.7,39.8,119.8,49l10.9,2.5v-92.7C232.6,461.4,228.5,461.1,224.5,460.9"/>
	<path d="M587.9,270c-88-15.9-178.1-24-267.8-24c-89.6,0-179.7,8.1-267.8,24L41,272.1v163.4l11.4,2.1c88.1,15.9,178.1,24,267.8,24
		c89.6,0,179.7-8.1,267.8-24l11.4-2.1V272.1L587.9,270z"/>
	<path class="st0" d="M60.3,288.1c85.5-15.2,172.9-22.9,259.9-22.9c87,0,174.4,7.7,259.9,22.9v131.3c-85.5,15.2-173,22.9-259.9,22.9
		c-86.9,0-174.4-7.7-259.9-22.9V288.1z M586.4,278.3c-87.6-15.8-177.1-23.9-266.3-23.9s-178.7,8-266.2,23.9l-4.4,0.8v149.3l4.4,0.8
		c87.5,15.8,177.1,23.9,266.2,23.9c89.1,0,178.7-8,266.2-23.9l4.4-0.8V279.1L586.4,278.3z"/>
</g>
<polygon class="st0" points="154.6,355.6 129,322.7 123,322.7 122.4,322.7 113.7,322.7 113.7,386.3 130.6,386.3 130.6,352.4 
	150.8,379.4 156.5,379.4 176.5,352.8 176.5,386.3 194.9,386.3 194.9,322.7 179.7,322.7 "/>
<path class="st0" d="M254,357.3H239l7.7-14L254,357.3z M238.9,322.7l-36,63.6h20.4l6.7-12.6h32.8l6.9,12.6h22l-36.4-63.6H238.9z"/>
<g>
	<path class="st0" d="M347.6,347.7c0,0-0.7,0.3-2.9,0.3h-27.1v-9.4h27.1c2,0,2.7,0.2,2.8,0.2c0,0.1,0.2,0.4,0.2,1.4v6.2
		C347.7,347.3,347.5,347.7,347.6,347.7 M350.8,322.7h-52.3v63.6h19.2v-22.4h33.1c13.9,0,15.9-8.9,15.9-14.2v-12.8
		C366.7,331.6,364.6,322.7,350.8,322.7"/>
</g>
<polygon class="st0" points="393.5,361.2 417,361.2 417,345.3 393.5,345.3 393.5,338.6 439,338.6 439,322.7 374.1,322.7 
	374.1,386.3 439.5,386.3 439.5,369.4 393.5,369.4 "/>
<polygon class="st0" points="500.7,352.1 528.6,322.7 504.8,322.7 488.6,340.8 471.6,322.7 445.3,322.7 476.1,353.8 446.1,386.3 
	470.2,386.3 488.3,365.5 508,386.3 534.7,386.3 "/>
<path class="st0" d="M537.9,379.1v1h2.2v6.2h1.2v-6.2h2.2v-1H537.9z M551.1,379.1l-2.1,5.4l-2.1-5.4H545v7.2h1.2v-6h0l2.4,6h0.7
	l2.3-6h0v6h1.2v-7.2H551.1z"/>
</svg>
